<?xml version="1.0" encoding="utf-8"?>
<!-- Generator: Adobe Illustrator 21.0.1, SVG Export Plug-In . SVG Version: 6.00 Build 0)  -->
<svg version="1.1" id="Layer_1" xmlns="http://www.w3.org/2000/svg" xmlns:xlink="http://www.w3.org/1999/xlink" x="0px" y="0px"
	 viewBox="0 0 527.5 103.8" style="enable-background:new 0 0 527.5 103.8;" xml:space="preserve">
<style type="text/css">
	.st0{fill:#123962;}
	.st1{fill:#B1D4E5;}
	.st2{fill:#2754BA;}
	.st3{fill:#799EB2;}
	.st4{fill:#00AEE6;}
	.st5{fill:#FFFFFF;}
</style>
<g>
	<g>
		<path class="st0" d="M17,30.4L3.3,44.1c-4.4,4.4-4.4,11.4,0,15.8L17,73.5L38.6,52L52,38.6L30.4,17L17,30.4z"/>
		<path class="st1" d="M73.5,60.1l13.4,13.4l13.7-13.7c4.4-4.4,4.4-11.4,0-15.8l-5.5-5.5L73.5,60.1z"/>
		<polygon class="st1" points="65.3,52 65.3,52 52,38.6 73.5,17 73.5,17 52,38.6 		"/>
		<polygon class="st2" points="52,38.6 65.3,52 73.5,60.1 95.1,38.6 86.9,30.4 73.5,17 		"/>
		<path class="st3" d="M73.5,17L59.8,3.3c-4.4-4.4-11.4-4.4-15.8,0L30.4,17L52,38.6L73.5,17z"/>
	</g>
	<path class="st4" d="M281.8,59.8c-2.1,2.2-5.1,3.6-8.3,3.6c-6.3,0-11.5-5.2-11.5-11.5s5.2-11.5,11.5-11.5c2.9,0,5.6,1.1,7.6,2.9
		c0.6,0.5,1.7,1.6,1.7,1.6l7-7.5c-4-4.5-9.8-7.3-16.3-7.3c-12,0-21.8,9.7-21.8,21.8c0,12,9.7,21.8,21.8,21.8c6.8,0,12.9-3,16.8-8
		l-7-7.5C283.2,58.2,282.3,59.3,281.8,59.8z"/>
	<path class="st4" d="M364.6,59.8c-2.1,2.2-5.1,3.6-8.3,3.6c-6.3,0-11.5-5.2-11.5-11.5s5.2-11.5,11.5-11.5c2.9,0,5.6,1.1,7.6,2.9
		c0.6,0.5,1.7,1.6,1.7,1.6l7-7.5c-4-4.5-9.8-7.3-16.3-7.3c-12,0-21.8,9.7-21.8,21.8c0,12,9.7,21.8,21.8,21.8c6.8,0,12.9-3,16.8-8
		l-7-7.5C366.1,58.2,365.1,59.3,364.6,59.8z"/>
	<path class="st4" d="M159.6,51c3.7-1.6,6.4-4.5,6.4-9.3v-0.1c0-2.9-1-5.1-2.7-6.8c-2.5-2.5-6.2-3.8-11.4-3.8h-21.8v41.8H152
		c10,0,15.8-4.4,15.8-11.5v-0.1C167.8,55.5,164.6,52.7,159.6,51z M141.8,40.3h7.5c3.5,0,5.2,1.4,5.2,3.6V44c0,2.5-1.9,3.6-5.5,3.6
		h-7.3L141.8,40.3L141.8,40.3z M156.3,59.7c0,2.5-2,3.8-5.6,3.8h-9v-7.7h8.8C154.4,55.8,156.2,57.3,156.3,59.7L156.3,59.7
		L156.3,59.7z"/>
	<polygon class="st4" points="184.7,31 173,31 173,72.8 203.5,72.8 203.5,62.7 184.7,62.7 	"/>
	<polygon class="st4" points="403.4,46.8 388.5,46.8 388.5,31.2 376.8,31.2 376.8,73.1 388.5,73.1 388.5,57.1 403.4,57.1 
		403.4,73.1 415,73.1 415,31.2 403.4,31.2 	"/>
	<path class="st4" d="M447.8,30.9h-11.2l-17.8,42.2H431l3-7.5h16.2l3,7.5h12.4L447.8,30.9z M437.3,56.6l4.7-11.9l4.7,11.9H437.3z"/>
	<rect x="469.2" y="31.2" class="st4" width="11.6" height="41.9"/>
	<polygon class="st4" points="515.9,31.2 515.9,53.3 498.6,31.2 487.6,31.2 487.6,73.1 499.3,73.1 499.3,50.1 517.2,73.1 
		527.5,73.1 527.5,31.2 	"/>
	<polygon class="st4" points="335.5,31.1 321.7,31.1 321.7,31.1 321.7,31.1 307.3,48.1 307.3,31.1 295.7,31.1 295.7,73 307.3,73 
		307.3,62.1 311.6,57.5 323.3,73 323.3,73 323.3,73 337.1,73 319.2,49.1 	"/>
	<path class="st4" d="M226.7,30.1c-12,0-21.8,9.7-21.8,21.8c0,12,9.7,21.8,21.8,21.8c12,0,21.8-9.7,21.8-21.8
		C248.5,39.9,238.8,30.1,226.7,30.1z M226.7,63.4c-6.3,0-11.5-5.2-11.5-11.5s5.2-11.5,11.5-11.5s11.5,5.2,11.5,11.5
		S233,63.4,226.7,63.4z"/>
</g>
<path class="st5" d="M38.6,51.9L17,73.4l27.1,27.1c4.4,4.4,11.4,4.4,15.8,0L87,73.4L65.3,51.9L52,38.5L38.6,51.9z"/>
<g>
	<path class="st4" d="M38.6,51.9L17,73.4l27.1,27.1c4.4,4.4,11.4,4.4,15.8,0L87,73.4L65.3,51.9L52,38.5L38.6,51.9z"/>
	<path class="st0" d="M17,30.3L3.3,44c-4.4,4.4-4.4,11.4,0,15.8L17,73.4l21.6-21.5L52,38.5L30.4,16.9L17,30.3z"/>
	<path class="st1" d="M73.5,60l13.4,13.4l13.7-13.7c4.4-4.4,4.4-11.4,0-15.8l-5.5-5.5L73.5,60z"/>
	<polygon class="st1" points="65.3,51.9 65.3,51.9 52,38.5 73.5,16.9 73.5,16.9 52,38.5 	"/>
	<polygon class="st2" points="52,38.5 65.3,51.9 73.5,60 95.1,38.5 86.9,30.3 73.5,16.9 	"/>
	<path class="st3" d="M73.5,16.9L59.8,3.2c-4.4-4.4-11.4-4.4-15.8,0L30.4,16.9L52,38.5L73.5,16.9z"/>
</g>
</svg>
